<svg version="1.1" id="speaker" xmlns="http://www.w3.org/2000/svg" xmlns:xlink="http://www.w3.org/1999/xlink" x="0px" y="0px" width="400px" height="400px" viewBox="0 0 400 400" enable-background="new 0 0 400 400" xml:space="preserve">

	<g>
		<path class="line line-1" fill="#010101" d="M215.701,159.494l-9.106,8.083v0.595c7.535,8.231,12.189,19.492,12.189,31.914
			c0,12.428-4.654,23.688-12.189,31.914v0.595l9.106,8.083c9.463-10.535,15.272-24.831,15.272-40.592
			S225.164,170.029,215.701,159.494z"/>

		<polygon fill="#010101" points="121.269,175.707 121.269,200.086 121.269,224.465 145.647,224.465 182.216,261.033 182.216,139.139 145.647,175.707"/>

		<path class="line-2 line" fill="#010101" d="M234.878,142.442l-9.118,8.094c10.892,13.577,17.403,30.801,17.403,49.55
			c0,18.748-6.512,35.985-17.392,49.543l9.106,8.095c12.809-15.713,20.475-35.771,20.475-57.638
			C255.353,178.23,247.687,158.167,234.878,142.442z"/>

		<path class="line-3 line" fill="#010101" d="M253.496,125.901l-9.166,8.143c14.51,18.016,23.212,40.996,23.212,66.042
			c0,25.045-8.702,48.02-23.212,66.042l9.166,8.142c16.379-20.188,26.235-46.02,26.235-74.184
			C279.731,171.928,269.875,146.09,253.496,125.901z"/>
	</g>

</svg>
